<svg xmlns="http://www.w3.org/2000/svg" viewBox="0 0 317.48 85.04"><defs><style>.cls-1{fill:#211731;}.cls-2{fill:#f6f9ec;}</style></defs><g id="Capa_2" data-name="Capa 2"><g id="Capa_1-2" data-name="Capa 1"><rect class="cls-1" width="317.48" height="85.04"/><rect class="cls-2" x="85.04" y="5.67" width="226.77" height="73.7"/><path class="cls-2" d="M39.77,51.85l-.47,1.91Q35.55,56.54,31.92,59t-8.67,5.4Q20.17,67.95,18,70.17t-3.65,3.65l-1.54,1.46a4.4,4.4,0,0,1-1.5.94,2.63,2.63,0,0,1-1.55.28,1.56,1.56,0,0,1-1.12-1.12,3.55,3.55,0,0,1,0-2,11.76,11.76,0,0,1,3.64-5.64,32.7,32.7,0,0,1,7.92-5.19q3-3.66,5.94-7.42c1.92-2.5,3.63-4.8,5.12-6.88S34.15,44,35.48,42c-1.57,1.16-3.13,2.25-4.66,3.3s-3,2-4.48,3L23.64,50l-.9.59Q17,55,14.77,54.51c-1.39-.33-2.34-1.55-2.83-3.65a16,16,0,0,1,.3-7.43,28.43,28.43,0,0,1,2-5.5,35.61,35.61,0,0,1,3.35-5.59,43,43,0,0,1,4.48-5.26,39.82,39.82,0,0,1,5.18-4.38,45.51,45.51,0,0,1,8.93-4.84,44.31,44.31,0,0,1,8.63-2.64,15.06,15.06,0,0,1,5.53-.31,1.93,1.93,0,0,1,1.38,1,4,4,0,0,1,.38,2,12,12,0,0,1-.35,2.46,5.69,5.69,0,0,1-1.07,2.18,11.71,11.71,0,0,1-3.4,2.65,37,37,0,0,1-4.49,2.13,9.93,9.93,0,0,1-2.49.81q-.15,0-.12-.18c0-.22.33-.52.84-.91s1.07-.78,1.67-1.17a7,7,0,0,0,2.74-3.16,28.9,28.9,0,0,0-5.55,1.39,37.64,37.64,0,0,0-5.77,2.64,56,56,0,0,0-6,3.87,41.54,41.54,0,0,0-6.24,5.59A40.93,40.93,0,0,0,17.39,42a16.22,16.22,0,0,0-2.09,4.3,3.9,3.9,0,0,0,0,2.2,1.64,1.64,0,0,0,1.23,1.23,4.7,4.7,0,0,0,3-.7,42.06,42.06,0,0,0,4.67-2.81C26,45,27.56,43.9,29,42.83s3.1-2.25,4.84-3.54,2.85-2.13,3.76-2.86a16.3,16.3,0,0,0,2.12-2c1.06-1.22,2-1.86,2.72-1.91a1.62,1.62,0,0,1,1.67,1,3.51,3.51,0,0,1,.2,2.43,20.66,20.66,0,0,1-1.93,3.1q-1.83,2.69-5.47,7.7t-8.84,11.8A101.55,101.55,0,0,0,39.77,51.85Z"/><path class="cls-2" d="M45.27,33.19l.47-1.91q3.75-2.78,7.38-5.25t8.66-5.4q3.09-3.54,5.22-5.76c1.42-1.48,2.64-2.69,3.65-3.65l1.54-1.46a4.4,4.4,0,0,1,1.5-.94,2.63,2.63,0,0,1,1.55-.28,1.55,1.55,0,0,1,1.12,1.12,3.55,3.55,0,0,1,0,2.05,11.84,11.84,0,0,1-3.64,5.64,32.9,32.9,0,0,1-7.92,5.19q-3,3.66-5.94,7.42c-1.93,2.5-3.63,4.8-5.13,6.88s-2.9,4.16-4.22,6.21c1.57-1.16,3.13-2.26,4.66-3.3s3-2,4.48-3L61.4,35l.9-.58q5.78-4.42,8-3.91c1.39.33,2.34,1.55,2.83,3.65a15.91,15.91,0,0,1-.31,7.43,28.37,28.37,0,0,1-2,5.5,35.61,35.61,0,0,1-3.35,5.59A43,43,0,0,1,63,58a40.62,40.62,0,0,1-5.18,4.38,45.51,45.51,0,0,1-8.93,4.84,44.52,44.52,0,0,1-8.63,2.64,15.29,15.29,0,0,1-5.53.31,1.93,1.93,0,0,1-1.38-1,4.05,4.05,0,0,1-.38-2,11.92,11.92,0,0,1,.34-2.46,5.79,5.79,0,0,1,1.08-2.18,11.71,11.71,0,0,1,3.4-2.65,38.7,38.7,0,0,1,4.49-2.14,10.14,10.14,0,0,1,2.49-.8q.15,0,.12.18c0,.22-.34.52-.84.91s-1.07.78-1.67,1.17a7,7,0,0,0-2.74,3.16,28.9,28.9,0,0,0,5.55-1.39,37.64,37.64,0,0,0,5.77-2.64,56,56,0,0,0,6-3.87,41.54,41.54,0,0,0,6.24-5.59,40.93,40.93,0,0,0,4.46-5.75,16.1,16.1,0,0,0,2.09-4.31,3.87,3.87,0,0,0,0-2.19,1.64,1.64,0,0,0-1.24-1.23,4.72,4.72,0,0,0-3,.7,42,42,0,0,0-4.66,2.81C59.09,40,57.48,41.14,56,42.21s-3.1,2.25-4.84,3.54-2.85,2.13-3.76,2.86a16.3,16.3,0,0,0-2.12,2c-1.06,1.22-2,1.86-2.72,1.91a1.62,1.62,0,0,1-1.67-1,3.51,3.51,0,0,1-.2-2.43A20.11,20.11,0,0,1,42.62,46q1.83-2.67,5.47-7.7t8.84-11.8A101.55,101.55,0,0,0,45.27,33.19Z"/><path class="cls-1" d="M113.19,23h8a2.39,2.39,0,0,1,2.4,2.4,2.28,2.28,0,0,1-.76,1.76,2.39,2.39,0,0,1-1.64.7h-7.61a2.38,2.38,0,0,0-1.94,1l-6.73,8.66a4.36,4.36,0,0,0-.85,2.86V53.72a2.39,2.39,0,0,0,.7,1.74,2.27,2.27,0,0,0,1.7.71h9.77a2.42,2.42,0,0,0,2.39-2.39v-5.2h-5a2.3,2.3,0,0,1-1.72-.7,2.46,2.46,0,0,1,0-3.4,2.34,2.34,0,0,1,1.72-.7h9.76v10A7.2,7.2,0,0,1,116.19,61h-9.77a7,7,0,0,1-5.13-2.11,6.93,6.93,0,0,1-2.12-5.08V40.5a9.5,9.5,0,0,1,1.91-6l7.08-9a6.05,6.05,0,0,1,2.16-1.74A6.14,6.14,0,0,1,113.19,23Z"/><path class="cls-1" d="M140,23H152.5A6.28,6.28,0,0,1,156.83,25a6.19,6.19,0,0,1,2,4.67,2.35,2.35,0,0,1-.72,1.74,2.26,2.26,0,0,1-1.62.71,2.08,2.08,0,0,1-1.68-.55,5.74,5.74,0,0,1-.87-2.07,1.81,1.81,0,0,0-1.85-1.52H140.26c-.57,0-.86.19-.86.56a1.23,1.23,0,0,0,.35.8L157.59,52a5.62,5.62,0,0,1,1.28,3.53,5.26,5.26,0,0,1-1.55,3.77A4.71,4.71,0,0,1,153.85,61H140.91a6.59,6.59,0,0,1-6.36-6.25c0-1.79.83-2.69,2.51-2.69a2.27,2.27,0,0,1,1.66.7,2.31,2.31,0,0,1,.68,1.65,1.72,1.72,0,0,0,.53,1.28,1.83,1.83,0,0,0,1.33.51h11.93c.52,0,.77-.2.77-.61a1.13,1.13,0,0,0-.35-.74l-17.8-22.75a5.64,5.64,0,0,1-1.26-3.54,5.37,5.37,0,0,1,1.6-3.87A5.19,5.19,0,0,1,140,23Z"/><path class="cls-1" d="M186.77,61H182a7,7,0,0,1-5.11-2.11,6.91,6.91,0,0,1-2.14-5.08V38.21h-2.45a2.4,2.4,0,1,1,0-4.79h2.51V27.53a2.39,2.39,0,0,1,2.4-2.39,2.46,2.46,0,0,1,2.4,2.39v5.89h9.65a2.44,2.44,0,0,1,2.4,2.4,2.26,2.26,0,0,1-.72,1.69,2.31,2.31,0,0,1-1.68.7h-9.71V53.78a2.27,2.27,0,0,0,.73,1.68,2.35,2.35,0,0,0,1.72.71h4.69a2.52,2.52,0,0,0,2.54-2.07A2.47,2.47,0,0,1,191.63,52a2.29,2.29,0,0,1,1.72.7,2.45,2.45,0,0,1,.67,1.76,6.37,6.37,0,0,1-2,4.33A6.88,6.88,0,0,1,186.77,61Z"/><path class="cls-1" d="M212.4,43.67h9.4A10.39,10.39,0,0,1,224,44l-.05-3.4a2.39,2.39,0,0,0-2.41-2.4h-9.12A2.44,2.44,0,0,1,210,35.82a2.39,2.39,0,0,1,2.41-2.4h9.12a6.93,6.93,0,0,1,5.07,2.08,7.16,7.16,0,0,1,2.19,5.11l.6,18a2.29,2.29,0,0,1-.71,1.7A2.33,2.33,0,0,1,227,61a2.39,2.39,0,0,1-1.74-.7,2.29,2.29,0,0,1-.71-1.7L220.52,61H212.4a7.22,7.22,0,0,1-7.27-7.25v-2.8a7.26,7.26,0,0,1,7.27-7.25Zm12,9.33-.14-2a2.43,2.43,0,0,0-.72-1.72,2.3,2.3,0,0,0-1.68-.68h-9.46A2.39,2.39,0,0,0,210,51v2.68a2.3,2.3,0,0,0,.71,1.69,2.34,2.34,0,0,0,1.69.71h6.77Z"/><path class="cls-1" d="M247.28,33.42h11a7.23,7.23,0,0,1,4.54,1.52c1.32,1,2,2,2,3a2.14,2.14,0,0,1-.73,1.68,2.33,2.33,0,0,1-1.61.66,2.76,2.76,0,0,1-2.08-1,2.73,2.73,0,0,0-2-1H247.54c-1.07,0-1.6.45-1.6,1.33A1.52,1.52,0,0,0,247,41l12.76,5.68a7.31,7.31,0,0,1,3.18,2.75,7.52,7.52,0,0,1,1.24,4.21A7.07,7.07,0,0,1,262,58.83,6.9,6.9,0,0,1,257,61h-9.7a7.93,7.93,0,0,1-4.67-1.51q-2.16-1.51-2.16-2.94a2.32,2.32,0,0,1,.7-1.67,2.39,2.39,0,0,1,1.81-.73,2.93,2.93,0,0,1,2,1,4.12,4.12,0,0,0,3,1h8.94a2.28,2.28,0,0,0,1.77-.81,2.73,2.73,0,0,0,.71-1.87,2.42,2.42,0,0,0-1.59-2.34l-12.88-5.8a6.34,6.34,0,0,1-2.86-2.4,5.83,5.83,0,0,1-1-3.19,6.27,6.27,0,0,1,1.79-4.46A5.82,5.82,0,0,1,247.28,33.42Z"/><path class="cls-1" d="M275.83,58.57V25.42a2.23,2.23,0,0,1,.7-1.65,2.33,2.33,0,0,1,1.7-.69,2.39,2.39,0,0,1,2.4,2.4V37.59l3.85-2.52a9.14,9.14,0,0,1,4.69-1.65h3a6.91,6.91,0,0,1,5.05,2.1,7.2,7.2,0,0,1,2.2,5.09l.6,18a2.17,2.17,0,0,1-.69,1.7,2.32,2.32,0,0,1-1.71.7,2.18,2.18,0,0,1-1.68-.73,2.47,2.47,0,0,1-.72-1.67l-.6-18a2.41,2.41,0,0,0-.74-1.69,2.31,2.31,0,0,0-1.71-.71h-2.69a3.63,3.63,0,0,0-2,.71l-6.83,4.46V58.57a2.4,2.4,0,0,1-4.1,1.7A2.32,2.32,0,0,1,275.83,58.57Z"/></g></g></svg>