<svg xmlns="http://www.w3.org/2000/svg" viewBox="0 0 81.31 52.85"><defs><style>.cls-1{fill:#211731;}.cls-2{fill:#ef9f6e;}</style></defs><g id="Capa_2" data-name="Capa 2"><g id="Capa_1-2" data-name="Capa 1"><path class="cls-1" d="M35.81,35l-.9,1.77C32,38,29.24,39.15,26.49,40.21s-6,2.17-9.71,3.31c-2.54,1.85-4.69,3.34-6.42,4.46S7.16,50,6,50.74L4.11,51.82a4.4,4.4,0,0,1-1.68.58,2.6,2.6,0,0,1-1.58-.09A1.55,1.55,0,0,1,0,51a3.62,3.62,0,0,1,.42-2,11.8,11.8,0,0,1,4.86-4.7,32.54,32.54,0,0,1,8.93-3.29Q18.06,38,21.74,35t6.6-5.6q2.91-2.56,5.56-5.13c-1.8.77-3.58,1.49-5.32,2.17s-3.42,1.3-5.06,1.89l-3,1.09-1,.37q-6.66,3-8.69,2T8.86,27.53a16.37,16.37,0,0,1,2-7.26,29.18,29.18,0,0,1,3.22-4.95,36,36,0,0,1,4.56-4.73,43.15,43.15,0,0,1,5.6-4.15,40.39,40.39,0,0,1,6.06-3.11A45.34,45.34,0,0,1,40.15.64,43.61,43.61,0,0,1,49.2,0a15.4,15.4,0,0,1,5.47,1,2,2,0,0,1,1.11,1.34,4.21,4.21,0,0,1-.1,2.06,11.7,11.7,0,0,1-.9,2.34,6,6,0,0,1-1.55,1.9,11.62,11.62,0,0,1-3.93,1.81,36.13,36.13,0,0,1-4.88,1.07,9.81,9.81,0,0,1-2.62.21.14.14,0,0,1-.07-.21,2.18,2.18,0,0,1,1-.69c.59-.27,1.22-.52,1.89-.77A6.94,6.94,0,0,0,48.06,7.6a28.41,28.41,0,0,0-5.74.08,37.83,37.83,0,0,0-6.25,1.26,58.49,58.49,0,0,0-6.77,2.41A43.47,43.47,0,0,0,16.23,20a16.63,16.63,0,0,0-3,3.76A4,4,0,0,0,12.72,26a1.67,1.67,0,0,0,.92,1.49,4.64,4.64,0,0,0,3.08,0,43.46,43.46,0,0,0,5.2-1.67q3-1.14,5.5-2.2c1.7-.71,3.54-1.5,5.54-2.37q2.74-1.17,4.34-1.95a16.06,16.06,0,0,0,2.53-1.47c1.31-1,2.34-1.38,3.1-1.25A1.64,1.64,0,0,1,44.32,18,3.6,3.6,0,0,1,44,20.4,19.87,19.87,0,0,1,41.35,23q-2.4,2.22-7.12,6.32T22.87,38.91A102.5,102.5,0,0,0,35.81,35Z"/><path class="cls-2" d="M45.5,17.87l.89-1.78q4.3-1.86,8.43-3.45t9.7-3.31Q68.35,6.56,71,4.87t4.4-2.76L77.2,1A4.4,4.4,0,0,1,78.88.45a2.6,2.6,0,0,1,1.58.09,1.57,1.57,0,0,1,.83,1.36,3.62,3.62,0,0,1-.42,2A11.94,11.94,0,0,1,76,8.65a32.88,32.88,0,0,1-8.93,3.28q-3.82,2.89-7.52,5.93T53,23.45c-1.94,1.71-3.79,3.42-5.57,5.13q2.72-1.16,5.32-2.16t5.07-1.9l3-1.09,1-.37q6.67-3,8.69-2t1.93,4.26a16.27,16.27,0,0,1-2,7.26,28.51,28.51,0,0,1-3.21,5,37.31,37.31,0,0,1-4.56,4.73,43.84,43.84,0,0,1-5.6,4.15A39.94,39.94,0,0,1,51,49.52a45.34,45.34,0,0,1-9.84,2.69,43.66,43.66,0,0,1-9,.6,15.35,15.35,0,0,1-5.47-1,2,2,0,0,1-1.11-1.34,4.27,4.27,0,0,1,.09-2.05,12.5,12.5,0,0,1,.9-2.34,6,6,0,0,1,1.56-1.91A11.62,11.62,0,0,1,32,42.38a37.73,37.73,0,0,1,4.88-1.07,10.32,10.32,0,0,1,2.62-.21.14.14,0,0,1,.07.21,2.25,2.25,0,0,1-1,.7c-.59.26-1.22.52-1.89.76a7,7,0,0,0-3.41,2.48A28.42,28.42,0,0,0,39,45.17a38.5,38.5,0,0,0,6.24-1.25A60.69,60.69,0,0,0,52,41.5a42.2,42.2,0,0,0,7.38-4.06,40.93,40.93,0,0,0,5.68-4.63,16.45,16.45,0,0,0,3-3.76,4.16,4.16,0,0,0,.48-2.18,1.66,1.66,0,0,0-.93-1.49,4.6,4.6,0,0,0-3.07,0,42.9,42.9,0,0,0-5.2,1.67q-3,1.14-5.5,2.2t-5.54,2.37Q45.61,32.79,44,33.57A16.38,16.38,0,0,0,41.48,35c-1.31,1-2.35,1.38-3.1,1.25A1.63,1.63,0,0,1,37,34.89a3.66,3.66,0,0,1,.36-2.44A21.14,21.14,0,0,1,40,29.84q2.4-2.2,7.12-6.32T58.44,14A100.79,100.79,0,0,0,45.5,17.87Z"/></g></g></svg>